<svg height="456pt" viewBox="-3 0 456 456.392" width="456pt" xmlns="http://www.w3.org/2000/svg">
    <path d="m14.277344 128.390625 24.320312 14.304687c5.894532-5 13.125-8.171874 20.796875-9.128906l171.898438-21.117187c4.386719-.539063
        8.378906 2.578125 8.917969 6.964843.539062 4.390626-2.578126 8.382813-6.96875 8.921876l-171.894532 21.121093c-2.585937.335938-5.101562
        1.09375-7.441406 2.246094l178.289062 105.082031 217.921876-128.394531-217.921876-128.390625zm0 0"/>

    <path d="m228.132812 272.96875-155.9375-91.863281v83.285156c0 22.023437 19.039063 43.433594 52.234376 58.738281 34.023437 14.589844
        70.746093 21.835938 107.765624 21.261719 37.015626.578125 73.738282-6.667969 107.761719-21.261719 33.199219-15.304687 52.238281-36.714844
        52.238281-58.738281v-83.285156l-155.933593 91.863281c-2.507813 1.476562-5.621094 1.476562-8.128907 0zm0 0"/>

    <path d="m48.195312 440.390625-16-88-32 104zm0 0"/>

    <path d="m56.195312 328.390625c-.015624-10.140625-6.429687-19.167969-16-22.527344v-132.589843c.023438-3.367188.757813-6.691407
        2.160157-9.753907 2.304687-5.160156 6.355469-9.339843 11.441406-11.808593l-15.25-9.007813c-4.144531 3.515625-7.535156
        7.839844-9.957031 12.703125-2.847656 5.527344-4.351563 11.648438-4.394532 17.867188v132.589843c-11.476562 4.089844-18.058593
        16.136719-15.296874 28.003907 2.765624 11.867187 13.992187 19.769531 26.09375 18.367187 12.101562-1.398437 21.226562-11.660156
        21.203124-23.84375zm0 0"/>
</svg>